<?xml version="1.0" encoding="utf-8"?>
<!-- Generator: Adobe Illustrator 17.0.0, SVG Export Plug-In . SVG Version: 6.00 Build 0)  -->
<!DOCTYPE svg PUBLIC "-//W3C//DTD SVG 1.1//EN" "http://www.w3.org/Graphics/SVG/1.1/DTD/svg11.dtd">
<svg version="1.1" id="Capa_1" xmlns="http://www.w3.org/2000/svg" xmlns:xlink="http://www.w3.org/1999/xlink" x="0px" y="0px"
	 width="27px" height="26.757px" viewBox="0 0 27 26.757" enable-background="new 0 0 27 26.757" xml:space="preserve">
<ellipse fill="#216D96" cx="13.477" cy="13.378" rx="12.523" ry="12.933"/>
<g>
	<path fill="#FFFFFF" d="M11.978,10.765c0.12-0.12,0.291-0.328,0.381-0.547c0.308-0.756,0.167-0.902,0.167-0.902
		c-0.202-0.437-0.636-1.02-1.209-1.593c-0.573-0.574-1.157-1.006-1.593-1.209c0,0-0.709-0.218-1.242,0.316
		c-0.003-0.001,0,0-0.005,0.006C8.476,6.836,8.475,6.836,8.474,6.836l0.001,0.001C8.402,6.911,8.334,6.985,8.271,7.058
		L11.978,10.765z"/>
	<path fill="#FFFFFF" d="M19.531,16.321c-0.202-0.436-0.636-1.02-1.209-1.593c-0.573-0.573-1.157-1.007-1.593-1.209
		c0,0-0.146-0.141-0.902,0.168c-0.219,0.089-0.427,0.261-0.547,0.38l3.708,3.707c0.073-0.063,0.147-0.131,0.221-0.204h0
		c0,0,0-0.001,0.001-0.002c0.006-0.005,0.007-0.003,0.006-0.005C19.749,17.03,19.531,16.321,19.531,16.321z"/>
	<path fill="#FFFFFF" d="M14.884,14.599c-0.117,0.158-0.303,0.223-0.524,0.223c-0.675,0-1.684-0.604-2.108-1.027
		c-0.563-0.564-1.443-2.158-0.805-2.633c0.036-0.022,0.072-0.045,0.109-0.069L7.947,7.484C7.403,8.309,7.425,8.968,7.425,8.968
		s-0.094,2.995,3.282,6.371c3.197,3.197,6.053,3.282,6.346,3.282c0.016,0,0.024,0,0.024,0s0.004,0,0.011,0
		c0.089,0,0.71-0.019,1.473-0.522l-3.608-3.608C14.929,14.527,14.905,14.563,14.884,14.599z"/>
</g>
</svg>
