<?xml version="1.0" encoding="utf-8"?>
<!-- Generator: Adobe Illustrator 17.0.0, SVG Export Plug-In . SVG Version: 6.00 Build 0)  -->
<!DOCTYPE svg PUBLIC "-//W3C//DTD SVG 1.1//EN" "http://www.w3.org/Graphics/SVG/1.1/DTD/svg11.dtd">
<svg version="1.1" id="Capa_1" xmlns="http://www.w3.org/2000/svg" xmlns:xlink="http://www.w3.org/1999/xlink" x="0px" y="0px"
	 width="27px" height="26.757px" viewBox="0 0 27 26.757" enable-background="new 0 0 27 26.757" xml:space="preserve">
<ellipse fill="#216D96" cx="13.144" cy="13.378" rx="12.523" ry="12.933"/>
<g>
	<path fill="#FFFFFF" d="M14.294,18.836c-0.027,0.041-0.053,0.083-0.08,0.123c-0.088,0.132-0.178,0.253-0.272,0.362
		c-0.046,0.006-0.095,0.01-0.142,0.016c-0.083,0.009-0.165,0.019-0.251,0.028c0.043-0.081,0.085-0.168,0.126-0.257
		c0.054-0.118,0.107-0.24,0.156-0.37c0.009-0.024,0.018-0.049,0.027-0.074c0.154-0.016,0.303-0.036,0.452-0.056
		c0.012-0.156,0.024-0.325,0.04-0.518c-0.103,0.012-0.206,0.024-0.311,0.034c0.008-0.029,0.016-0.059,0.024-0.088
		c-0.142-0.003-0.285-0.009-0.43-0.017c-0.011,0.048-0.022,0.097-0.034,0.144c-0.123,0.008-0.25,0.013-0.376,0.019
		c-0.09,0.005-0.179,0.011-0.271,0.014c0.015-0.077,0.03-0.155,0.044-0.235c-0.133-0.016-0.267-0.034-0.401-0.055
		c-0.01,0.083-0.019,0.165-0.029,0.245c-0.002,0.018-0.004,0.036-0.006,0.054c-0.001,0-0.002,0-0.003,0
		c-0.073,0.001-0.147,0.001-0.219,0.001c-0.068,0-0.136-0.001-0.203-0.001c-0.007,0-0.013,0-0.02,0
		c-0.015-0.126-0.03-0.258-0.046-0.393c-0.145-0.029-0.289-0.062-0.433-0.097c0.028,0.166,0.058,0.327,0.087,0.48
		c-0.049-0.002-0.097-0.006-0.147-0.009c-0.144-0.007-0.287-0.015-0.428-0.025c-0.023-0.002-0.048-0.002-0.071-0.004
		c-0.048-0.19-0.093-0.39-0.135-0.599c-0.002-0.012-0.005-0.025-0.007-0.036c-0.166-0.051-0.331-0.107-0.495-0.166
		c0.012,0.055,0.025,0.111,0.038,0.164c0.049,0.207,0.102,0.407,0.159,0.597c-0.055-0.006-0.11-0.013-0.164-0.019
		c-0.159-0.019-0.315-0.039-0.467-0.061c-0.018-0.003-0.037-0.005-0.055-0.008c-0.086-0.192-0.166-0.395-0.241-0.607
		c-0.048-0.136-0.094-0.277-0.137-0.421c-0.201-0.093-0.399-0.191-0.594-0.296c0.008,0.026,0.016,0.052,0.024,0.078
		c0.055,0.186,0.113,0.368,0.176,0.543c0.077,0.212,0.159,0.416,0.248,0.612c-0.067-0.013-0.133-0.027-0.198-0.041
		c-0.125-0.026-0.248-0.054-0.368-0.084c-0.209-0.36-0.396-0.761-0.556-1.189c-0.02-0.053-0.041-0.105-0.06-0.159
		c0.027,0.009,0.055,0.018,0.082,0.027c0.178,0.06,0.363,0.116,0.554,0.169c0.012,0.003,0.024,0.007,0.035,0.01
		c-0.511-0.28-0.998-0.603-1.447-0.971c-0.015-0.007-0.03-0.014-0.045-0.02c-0.137-0.06-0.269-0.123-0.393-0.188
		c-0.053-0.027-0.104-0.054-0.154-0.082c-0.029-0.107-0.056-0.216-0.081-0.325c-0.237-0.242-0.458-0.5-0.661-0.773
		c0.015,0.133,0.032,0.266,0.054,0.397c0.015,0.093,0.032,0.185,0.05,0.276c-0.012-0.01-0.023-0.02-0.035-0.03
		c-0.181-0.149-0.326-0.297-0.432-0.434c-0.05-0.292-0.08-0.591-0.091-0.896c-0.193-0.332-0.361-0.684-0.5-1.055
		c-0.031,0.268-0.048,0.539-0.047,0.814c-0.001,0.402,0.034,0.796,0.099,1.18c0.028,0.165,0.062,0.328,0.101,0.488
		c0.047,0.195,0.102,0.386,0.164,0.572c0.233,0.699,0.565,1.338,0.96,1.883c0.021,0.03,0.044,0.056,0.066,0.086
		c0.778,1.054,1.76,1.763,2.651,2.177c0.463,0.208,0.891,0.348,1.274,0.443c0.328,0.094,0.667,0.164,1.013,0.21
		c0.074,0.01,0.149,0.019,0.224,0.026c0.112,0.011,0.225,0.019,0.338,0.026c0.099,0.005,0.198,0.008,0.298,0.01
		c0.028,0,0.056,0.002,0.085,0.002c0.075,0,0.15-0.005,0.224-0.007c0.019,0,0.037-0.001,0.056-0.002
		c1.13-0.044,2.194-0.349,3.128-0.861c0.473-0.25,0.962-0.585,1.424-1.006c0.308-0.28,0.604-0.6,0.876-0.962
		c-1.24,0.857-2.531,1.583-3.889,2.2C14.252,19.439,14.272,19.145,14.294,18.836z M6.791,16.989
		c-0.041-0.027-0.082-0.055-0.119-0.081c-0.352-0.571-0.621-1.2-0.791-1.868c0.112,0.128,0.249,0.258,0.403,0.386
		c0.024,0.02,0.047,0.04,0.071,0.059c0.042,0.156,0.09,0.309,0.141,0.46c0.063,0.188,0.136,0.371,0.212,0.549
		c0.094,0.219,0.194,0.432,0.304,0.634C6.932,17.082,6.86,17.035,6.791,16.989z M7.577,18.062c-0.147-0.152-0.29-0.308-0.422-0.474
		c0.066,0.04,0.135,0.078,0.208,0.116c0.088,0.132,0.181,0.257,0.276,0.378c0.055,0.071,0.11,0.142,0.167,0.209
		C7.727,18.218,7.652,18.14,7.577,18.062z M8.009,17.565c-0.071-0.025-0.141-0.05-0.208-0.075c-0.299-0.465-0.561-0.987-0.762-1.555
		c0.155,0.087,0.322,0.168,0.495,0.247c0.032,0.015,0.064,0.031,0.097,0.045c0.024,0.076,0.051,0.149,0.077,0.223
		c0.065,0.187,0.135,0.37,0.21,0.547c0.095,0.222,0.197,0.436,0.307,0.639C8.151,17.613,8.079,17.589,8.009,17.565z M9.064,18.936
		c-0.005-0.001-0.009-0.003-0.013-0.004c-0.218-0.183-0.432-0.394-0.638-0.628c-0.029-0.033-0.057-0.068-0.085-0.101
		c-0.033-0.039-0.067-0.077-0.099-0.118c0.014,0.005,0.029,0.01,0.043,0.015c0.094,0.034,0.19,0.067,0.29,0.098
		c0.037,0.057,0.076,0.112,0.115,0.167c0.15,0.214,0.309,0.412,0.475,0.591c0.004,0.004,0.007,0.008,0.011,0.012
		C9.127,18.957,9.095,18.946,9.064,18.936z M9.939,19.174c-0.036-0.032-0.071-0.067-0.107-0.1c-0.209-0.198-0.411-0.428-0.602-0.688
		c0.067,0.016,0.138,0.03,0.206,0.045c0.089,0.02,0.176,0.041,0.266,0.059c0.011,0.02,0.023,0.039,0.034,0.059
		c0.116,0.202,0.239,0.39,0.369,0.562c0.018,0.024,0.036,0.049,0.054,0.072c0.012,0.015,0.023,0.029,0.035,0.043
		C10.106,19.208,10.021,19.192,9.939,19.174z M10.794,19.318c-0.022-0.003-0.045-0.005-0.067-0.008
		c-0.09-0.107-0.176-0.223-0.262-0.35c-0.081-0.118-0.159-0.245-0.235-0.378c0.119,0.018,0.242,0.032,0.364,0.047
		c0.044,0.005,0.086,0.012,0.13,0.017c0.031,0.004,0.062,0.008,0.093,0.012c0.01,0.026,0.019,0.053,0.029,0.079
		c0.062,0.163,0.129,0.314,0.199,0.457c0.026,0.054,0.052,0.111,0.079,0.161C11.011,19.345,10.902,19.332,10.794,19.318z
		 M11.367,19.902c0.041,0.004,0.083,0.009,0.125,0.012c0.043,0.052,0.086,0.1,0.131,0.143
		C11.541,20.015,11.455,19.964,11.367,19.902z M11.492,19.387c-0.093-0.2-0.183-0.432-0.263-0.689
		c0.198,0.015,0.401,0.027,0.605,0.034c0.04,0.177,0.079,0.34,0.117,0.49c0.014,0.057,0.028,0.111,0.042,0.163
		c0.002,0.009,0.005,0.018,0.007,0.027c-0.004,0-0.007,0-0.011,0c-0.089-0.003-0.176-0.009-0.264-0.013
		C11.648,19.395,11.568,19.392,11.492,19.387z M11.966,20.095c-0.028-0.026-0.058-0.055-0.088-0.089
		c-0.02-0.02-0.038-0.044-0.058-0.068c0.111,0.007,0.224,0.01,0.338,0.012c0.021,0.058,0.039,0.111,0.057,0.157
		C12.133,20.104,12.049,20.1,11.966,20.095z M12.338,19.954V19.95h0.001L12.338,19.954z M12.406,19.417c-0.03,0-0.06,0-0.09,0
		c-0.009,0-0.018,0.001-0.027,0h-0.016c-0.026-0.198-0.056-0.425-0.089-0.677c0.051,0.001,0.103,0.001,0.154,0.001
		c0.053,0,0.105,0,0.157-0.001c-0.022,0.169-0.043,0.325-0.062,0.47C12.423,19.282,12.414,19.352,12.406,19.417z M12.799,20.006
		c-0.032,0.037-0.065,0.068-0.096,0.096c-0.08,0.004-0.16,0.006-0.241,0.006c0.017-0.046,0.036-0.098,0.056-0.157
		c0.115-0.002,0.226-0.006,0.337-0.011C12.837,19.962,12.818,19.985,12.799,20.006z M13.056,20.057
		c0.043-0.042,0.087-0.089,0.129-0.14c0.041-0.005,0.082-0.009,0.124-0.012C13.221,19.965,13.136,20.016,13.056,20.057z
		 M13.183,19.394c-0.096,0.006-0.194,0.009-0.292,0.012c-0.071,0.003-0.142,0.007-0.214,0.009c0.019-0.07,0.038-0.144,0.057-0.221
		c0.036-0.142,0.072-0.296,0.108-0.461c0.204-0.007,0.406-0.017,0.605-0.032C13.367,18.961,13.276,19.192,13.183,19.394z"/>
	<path fill="#FFFFFF" d="M19.509,14.098c0.024-0.235,0.037-0.473,0.037-0.714c0.004-1.569-0.533-3.034-1.324-4.124
		c-0.508-0.712-1.11-1.269-1.72-1.69c-1.158-0.818-2.571-1.298-4.095-1.298c-0.773,0-1.516,0.123-2.212,0.351
		c-0.315,0.091-0.657,0.212-1.02,0.375C8.883,7.133,8.583,7.299,8.282,7.499c-0.064,0.027-0.14,0.068-0.226,0.131
		c-0.037,0.025-0.08,0.064-0.12,0.113C7.6,7.997,7.27,8.294,6.959,8.637C6.785,8.83,6.616,9.037,6.457,9.26
		c-0.184,0.253-0.353,0.528-0.506,0.818C5.924,10.016,5.9,9.951,5.874,9.887C5.627,9.266,5.441,8.579,5.333,7.816
		C5.211,8.533,5.172,9.208,5.204,9.842c0.268,5.334,5.614,7.752,9.632,7.716c-0.057,0.723-0.082,1.085-0.13,1.809
		c2.395-1.087,4.58-2.512,6.65-4.406c0.171-0.157,0.342-0.315,0.512-0.478C21.057,14.408,20.273,14.28,19.509,14.098z
		 M18.729,11.451c0.13,0.432,0.215,0.887,0.255,1.355c0.006,0.075,0.014,0.149,0.018,0.224c-0.094,0.132-0.229,0.271-0.405,0.409
		c0-0.018,0.001-0.037,0.001-0.055c0.001-0.55-0.055-1.088-0.16-1.604c0.09-0.08,0.166-0.162,0.23-0.245
		C18.69,11.507,18.71,11.479,18.729,11.451z M18.003,9.824c0.256,0.416,0.476,0.876,0.644,1.369
		c-0.011,0.015-0.022,0.031-0.034,0.048c-0.01,0.014-0.025,0.028-0.037,0.042c-0.055,0.065-0.121,0.131-0.204,0.197
		c-0.127-0.522-0.304-1.017-0.521-1.475c0.015-0.015,0.027-0.03,0.041-0.045C17.933,9.915,17.97,9.871,18.003,9.824z M17.044,10.531
		c0.141-0.068,0.272-0.139,0.392-0.212c0.009,0.021,0.017,0.043,0.026,0.064c0.187,0.437,0.339,0.903,0.443,1.397
		c-0.018,0.01-0.038,0.019-0.056,0.028c-0.142,0.074-0.295,0.145-0.463,0.214C17.312,11.502,17.195,11.002,17.044,10.531z
		 M16.76,8.333c0.378,0.342,0.74,0.742,1.058,1.21c0.019,0.028,0.039,0.056,0.058,0.085c-0.032,0.042-0.076,0.084-0.127,0.126
		c-0.006,0.005-0.01,0.009-0.016,0.014c-0.024-0.046-0.049-0.089-0.073-0.134c-0.03-0.055-0.059-0.111-0.09-0.164
		c-0.243-0.422-0.52-0.797-0.815-1.129L16.76,8.333z M16.433,8.664c0.28,0.344,0.538,0.739,0.765,1.168
		c0.034,0.065,0.07,0.129,0.103,0.196c-0.043,0.02-0.089,0.041-0.135,0.061c-0.076,0.034-0.155,0.067-0.238,0.098
		c-0.181-0.491-0.4-0.946-0.646-1.356c-0.002-0.003-0.004-0.006-0.005-0.01c-0.009-0.014-0.017-0.03-0.026-0.045
		C16.312,8.74,16.374,8.703,16.433,8.664z M15.761,10.29c-0.108-0.413-0.236-0.806-0.383-1.169c0.157-0.047,0.306-0.097,0.449-0.153
		c0.035,0.061,0.069,0.125,0.103,0.189c0.197,0.366,0.374,0.765,0.522,1.193c-0.038,0.012-0.079,0.023-0.118,0.035
		c-0.153,0.045-0.312,0.089-0.48,0.13c-0.011,0.003-0.022,0.006-0.033,0.009C15.802,10.445,15.781,10.367,15.761,10.29z
		 M15.971,11.262c-0.017-0.101-0.035-0.202-0.055-0.302c0.233-0.069,0.453-0.144,0.658-0.224c0.023,0.078,0.043,0.158,0.064,0.238
		c0.104,0.395,0.185,0.806,0.238,1.233c-0.006,0.002-0.013,0.004-0.019,0.006c-0.161,0.052-0.333,0.101-0.508,0.148
		c-0.079,0.021-0.156,0.042-0.237,0.062C16.082,12.025,16.035,11.638,15.971,11.262z M15.423,7.673
		c0.266,0.202,0.529,0.442,0.779,0.719c-0.048,0.025-0.1,0.049-0.157,0.07c-0.213-0.31-0.444-0.587-0.686-0.826
		c-0.015-0.015-0.03-0.031-0.046-0.046C15.35,7.616,15.386,7.646,15.423,7.673z M14.355,7.278c0.118,0.087,0.237,0.183,0.356,0.29
		c0.317,0.276,0.62,0.628,0.894,1.041c-0.036,0.01-0.073,0.019-0.11,0.029c-0.043,0.011-0.087,0.022-0.131,0.032
		c-0.055,0.013-0.11,0.026-0.167,0.039c-0.097-0.205-0.2-0.398-0.309-0.58c-0.005-0.008-0.01-0.017-0.015-0.026
		c-0.112-0.185-0.23-0.358-0.354-0.516c-0.077-0.102-0.157-0.197-0.237-0.285C14.306,7.294,14.33,7.286,14.355,7.278z M14.308,9.747
		c-0.026-0.13-0.052-0.257-0.081-0.382c0.244-0.036,0.478-0.078,0.702-0.129c0.039,0.104,0.076,0.211,0.111,0.319
		c0.111,0.338,0.208,0.698,0.289,1.075c-0.027,0.005-0.055,0.01-0.081,0.015c-0.159,0.03-0.322,0.058-0.489,0.084
		c-0.094,0.014-0.187,0.03-0.284,0.042C14.429,10.416,14.373,10.074,14.308,9.747z M13.896,7.393
		c0.108,0.122,0.214,0.261,0.317,0.414c0.112,0.164,0.219,0.344,0.32,0.536c0.075,0.142,0.148,0.291,0.216,0.447
		c-0.072,0.011-0.147,0.022-0.221,0.032c-0.138,0.019-0.278,0.037-0.423,0.052c-0.083-0.303-0.174-0.587-0.274-0.846
		c-0.081-0.212-0.168-0.408-0.26-0.585C13.681,7.43,13.789,7.413,13.896,7.393z M13.11,9.475c0.227-0.012,0.449-0.03,0.666-0.053
		c0.025,0.133,0.048,0.27,0.07,0.409c0.05,0.319,0.094,0.653,0.13,1.001c-0.014,0.001-0.029,0.002-0.043,0.003
		c-0.16,0.016-0.325,0.028-0.49,0.039c-0.053,0.003-0.103,0.009-0.157,0.012c-0.034-0.338-0.072-0.662-0.114-0.972
		C13.153,9.765,13.132,9.617,13.11,9.475z M13.333,11.413c0.236-0.016,0.467-0.039,0.691-0.066c0.037,0.453,0.062,0.925,0.072,1.411
		c-0.162,0.016-0.33,0.027-0.497,0.038c-0.066,0.004-0.129,0.011-0.195,0.015c-0.007-0.33-0.024-0.65-0.043-0.964
		C13.352,11.701,13.344,11.554,13.333,11.413z M13.474,8.153c0.071,0.235,0.138,0.489,0.199,0.762
		c-0.058,0.005-0.12,0.006-0.178,0.01c-0.136,0.009-0.273,0.017-0.413,0.023c-0.02,0.001-0.039,0.002-0.059,0.003
		c-0.033-0.19-0.067-0.37-0.102-0.541c-0.068-0.337-0.136-0.639-0.202-0.898c0.173-0.005,0.344-0.014,0.513-0.029
		c0.053,0.122,0.104,0.255,0.153,0.397C13.416,7.967,13.446,8.058,13.474,8.153z M12.366,11.446c0.153,0,0.305-0.002,0.455-0.007
		c0.025,0.447,0.043,0.912,0.052,1.391c-0.163,0.004-0.328,0.005-0.494,0.003c-0.01,0-0.019,0-0.029,0
		c-0.183-0.001-0.364-0.004-0.544-0.01c0.006-0.306,0.016-0.604,0.029-0.897c0.007-0.165,0.014-0.33,0.023-0.49
		C12.025,11.442,12.195,11.446,12.366,11.446z M11.89,10.904c0.022-0.322,0.048-0.631,0.075-0.928
		c0.015-0.165,0.031-0.327,0.047-0.483c0.087,0.003,0.173,0.004,0.261,0.005c0.132,0,0.263-0.002,0.392-0.007
		c0.015,0.149,0.03,0.303,0.045,0.459c0.028,0.306,0.055,0.625,0.078,0.958c-0.01,0-0.021,0-0.031,0
		c-0.129,0.003-0.259,0.005-0.391,0.005c-0.032,0-0.063-0.001-0.095-0.002C12.143,10.91,12.016,10.909,11.89,10.904z M13.353,6.895
		c-0.002,0-0.004,0-0.006,0c-0.04,0.002-0.079,0.006-0.119,0.008c-0.01-0.013-0.02-0.024-0.03-0.036
		c-0.047-0.057-0.094-0.11-0.142-0.156C13.15,6.759,13.25,6.821,13.353,6.895z M12.69,6.655c0.036,0.029,0.073,0.065,0.109,0.107
		c0.014,0.015,0.028,0.033,0.043,0.05c0.027,0.033,0.055,0.068,0.082,0.107c-0.121,0.005-0.245,0.008-0.369,0.01
		c-0.018-0.056-0.035-0.107-0.051-0.154c-0.016-0.047-0.032-0.09-0.047-0.127C12.535,6.649,12.612,6.651,12.69,6.655z M12.338,6.815
		c0.004,0.036,0.01,0.076,0.014,0.116h-0.004c-0.008,0-0.015,0-0.023,0C12.331,6.89,12.335,6.85,12.338,6.815z M12.348,7.519
		c0.027,0,0.053-0.001,0.08-0.001c0.019,0.141,0.039,0.296,0.06,0.461c0.038,0.293,0.079,0.623,0.12,0.983
		c-0.051,0.001-0.103,0.001-0.154,0.001c-0.06,0-0.119,0.001-0.179,0.001c-0.069,0-0.137-0.001-0.205-0.003c0,0,0,0,0,0
		c0,0,0-0.001,0-0.001c0.064-0.562,0.128-1.049,0.179-1.441C12.283,7.518,12.316,7.519,12.348,7.519z M11.879,6.762
		c0.003-0.003,0.006-0.006,0.008-0.009c0.032-0.035,0.062-0.065,0.092-0.091c0.08-0.005,0.16-0.01,0.24-0.012
		c-0.012,0.032-0.025,0.069-0.038,0.107c-0.018,0.052-0.037,0.108-0.058,0.172c-0.124-0.003-0.247-0.006-0.369-0.01
		C11.795,6.86,11.838,6.807,11.879,6.762z M11.528,6.764c0.032-0.019,0.064-0.038,0.095-0.054c-0.016,0.016-0.032,0.034-0.049,0.051
		c-0.041,0.044-0.082,0.09-0.122,0.141c-0.041-0.003-0.083-0.005-0.125-0.009C11.396,6.844,11.462,6.802,11.528,6.764z
		 M11.258,7.979c0.059-0.181,0.123-0.348,0.189-0.498c0.168,0.015,0.338,0.024,0.512,0.03C11.921,7.66,11.882,7.824,11.843,8
		c-0.063,0.285-0.127,0.602-0.188,0.949c-0.003,0-0.005,0-0.008,0c-0.128-0.005-0.254-0.011-0.38-0.018
		c-0.088-0.005-0.176-0.011-0.262-0.017c0.06-0.272,0.126-0.526,0.198-0.761C11.221,8.094,11.24,8.036,11.258,7.979z M10.801,11.353
		c0.179,0.021,0.36,0.04,0.545,0.053c-0.035,0.447-0.061,0.913-0.072,1.395c-0.156-0.009-0.308-0.021-0.462-0.034
		c-0.076-0.006-0.155-0.009-0.231-0.016c0.007-0.302,0.021-0.596,0.038-0.885c0.01-0.177,0.021-0.354,0.035-0.525
		c0-0.002,0-0.003,0-0.005C10.703,11.343,10.752,11.347,10.801,11.353z M10.703,10.823c0.032-0.308,0.071-0.604,0.114-0.888
		c0.026-0.174,0.054-0.346,0.085-0.511c0.217,0.021,0.441,0.039,0.667,0.051c-0.067,0.434-0.128,0.906-0.177,1.406
		c-0.145-0.009-0.284-0.023-0.425-0.035C10.88,10.838,10.789,10.832,10.703,10.823z M10.465,7.808
		c0.103-0.155,0.21-0.293,0.32-0.418c0.106,0.02,0.214,0.038,0.322,0.052c-0.092,0.178-0.18,0.375-0.261,0.587
		c-0.099,0.26-0.191,0.542-0.273,0.845c-0.11-0.011-0.218-0.024-0.323-0.037c-0.11-0.014-0.217-0.029-0.322-0.046
		c0.147-0.335,0.309-0.637,0.483-0.903C10.43,7.862,10.447,7.834,10.465,7.808z M8.566,12.444c-0.146-0.034-0.287-0.07-0.424-0.107
		c-0.117-0.032-0.233-0.065-0.343-0.1c0.037-0.313,0.091-0.618,0.156-0.914c0.031-0.139,0.065-0.276,0.101-0.411
		c0.017-0.063,0.033-0.127,0.051-0.188c0.101,0.039,0.205,0.076,0.312,0.113c0.112,0.038,0.227,0.075,0.346,0.11
		C8.671,11.425,8.603,11.926,8.566,12.444z M8.532,10.428c-0.104-0.028-0.205-0.057-0.302-0.086
		c0.099-0.285,0.211-0.556,0.332-0.815c0.064-0.136,0.131-0.267,0.2-0.395C8.79,9.08,8.817,9.026,8.847,8.975
		c0.072,0.027,0.145,0.054,0.221,0.08C9.142,9.08,9.219,9.105,9.297,9.128c-0.172,0.426-0.32,0.89-0.438,1.384
		C8.746,10.485,8.638,10.457,8.532,10.428z M9.176,11.65c0.021-0.162,0.044-0.322,0.071-0.48c0.005-0.03,0.009-0.06,0.015-0.09
		c0.152,0.037,0.31,0.072,0.47,0.105c0.136,0.027,0.273,0.053,0.414,0.077c-0.048,0.461-0.08,0.941-0.095,1.435
		c-0.154-0.018-0.306-0.039-0.455-0.061c-0.173-0.025-0.342-0.053-0.506-0.083C9.109,12.244,9.139,11.944,9.176,11.65z
		 M10.204,10.763c-0.136-0.019-0.269-0.039-0.399-0.061c-0.155-0.026-0.307-0.053-0.454-0.082c0.063-0.289,0.136-0.567,0.217-0.834
		c0.049-0.162,0.101-0.32,0.156-0.473c0.008-0.023,0.016-0.047,0.024-0.069c0.116,0.026,0.236,0.049,0.357,0.071
		c0.113,0.02,0.227,0.039,0.344,0.055C10.351,9.802,10.269,10.269,10.204,10.763z M9.967,7.568c0.121-0.109,0.242-0.207,0.361-0.296
		c0.025,0.01,0.05,0.017,0.072,0.025c-0.082,0.089-0.163,0.185-0.241,0.289C9.91,7.905,9.682,8.283,9.481,8.707
		C9.413,8.693,9.345,8.678,9.28,8.662C9.209,8.644,9.14,8.626,9.073,8.608c0.141-0.212,0.288-0.406,0.442-0.583
		C9.661,7.855,9.812,7.702,9.967,7.568z M9.365,7.59C9.107,7.839,8.861,8.131,8.634,8.46C8.607,8.45,8.58,8.439,8.555,8.428
		C8.553,8.427,8.552,8.426,8.551,8.426c-0.024-0.01-0.047-0.021-0.07-0.032c-0.001,0-0.003-0.001-0.004-0.002
		C8.761,8.077,9.061,7.807,9.365,7.59z M8.062,8.904c0.058-0.078,0.115-0.156,0.175-0.23C8.262,8.69,8.287,8.705,8.313,8.72
		C8.336,8.735,8.359,8.75,8.382,8.763C8.395,8.771,8.41,8.778,8.423,8.785c-0.257,0.42-0.483,0.889-0.669,1.396
		c-0.085-0.032-0.165-0.064-0.242-0.097c-0.045-0.019-0.091-0.039-0.134-0.058c0.142-0.289,0.3-0.56,0.469-0.815
		C7.917,9.105,7.988,9.003,8.062,8.904z M7.101,9.239c0.227-0.291,0.476-0.564,0.748-0.813C7.581,8.736,7.33,9.085,7.107,9.471
		C7.049,9.569,6.995,9.672,6.941,9.776c-0.05-0.038-0.092-0.075-0.128-0.111L6.807,9.657L6.801,9.65
		C6.895,9.509,6.996,9.373,7.101,9.239z M6.253,10.697c-0.004-0.007-0.007-0.014-0.011-0.021c0.03-0.069,0.06-0.138,0.092-0.205
		c0.036-0.076,0.076-0.149,0.115-0.224c0.073-0.139,0.15-0.276,0.233-0.41c0.002,0.004,0.006,0.007,0.008,0.01
		c0.04,0.053,0.086,0.104,0.139,0.155c-0.152,0.32-0.283,0.659-0.392,1.013C6.373,10.912,6.312,10.806,6.253,10.697z M6.951,11.748
		c-0.044-0.054-0.089-0.108-0.131-0.164c0.054-0.225,0.117-0.444,0.189-0.657c0.037-0.109,0.076-0.217,0.117-0.323
		c0.039-0.099,0.078-0.196,0.12-0.292c0.043,0.026,0.089,0.051,0.135,0.076c0.082,0.045,0.166,0.089,0.257,0.132
		c-0.156,0.484-0.275,0.997-0.35,1.531c-0.046-0.019-0.088-0.039-0.131-0.059C7.086,11.914,7.018,11.832,6.951,11.748z
		 M8.089,12.866c-0.068-0.053-0.136-0.106-0.202-0.162c0.069,0.025,0.138,0.049,0.21,0.072c0.144,0.046,0.291,0.09,0.444,0.131
		C8.538,13,8.537,13.094,8.536,13.188C8.383,13.087,8.235,12.979,8.089,12.866z M9.559,13.753c-0.069-0.032-0.138-0.065-0.206-0.099
		c-0.096-0.047-0.19-0.097-0.283-0.148c0-0.041-0.003-0.081-0.003-0.123c0-0.092,0.002-0.183,0.004-0.275
		c0-0.025,0-0.05,0.001-0.075c0.163,0.035,0.33,0.067,0.501,0.097c0.153,0.027,0.309,0.052,0.469,0.074
		c-0.001,0.06-0.001,0.118-0.001,0.179c0,0.193,0.004,0.384,0.009,0.574C9.883,13.895,9.719,13.827,9.559,13.753z M10.79,14.204
		c-0.069-0.02-0.137-0.041-0.205-0.062c-0.003-0.115-0.004-0.233-0.006-0.349c-0.002-0.136-0.006-0.271-0.006-0.409
		c0-0.038,0-0.076,0-0.112c0.226,0.024,0.458,0.043,0.692,0.058c0,0.017,0,0.036,0,0.054c0,0.322,0.009,0.635,0.021,0.945
		C11.12,14.292,10.954,14.25,10.79,14.204z M12.389,14.513c-0.191-0.021-0.381-0.047-0.57-0.079
		c-0.006-0.193-0.011-0.389-0.014-0.587c-0.002-0.154-0.006-0.307-0.006-0.463c0-0.01,0.001-0.018,0.001-0.028
		c0.179,0.006,0.361,0.011,0.545,0.012c0.179,0.002,0.356,0,0.533-0.005c0,0.008,0,0.014,0,0.022
		c-0.001,0.401-0.01,0.789-0.024,1.17C12.699,14.544,12.544,14.53,12.389,14.513z M13.614,14.58c-0.078,0-0.156-0.001-0.234-0.002
		c0.013-0.262,0.021-0.528,0.026-0.8c0.002-0.131,0.006-0.261,0.006-0.394c0-0.015,0-0.03,0-0.046
		c0.235-0.015,0.466-0.035,0.692-0.06c0,0.036,0.001,0.07,0.001,0.106c-0.001,0.404-0.012,0.799-0.03,1.187
		C13.921,14.577,13.768,14.58,13.614,14.58z M15.256,13.137c-0.049,0.431-0.088,0.799-0.144,1.351
		c-0.145,0.018-0.29,0.033-0.436,0.046c-0.023,0.002-0.047,0.003-0.07,0.005c0.016-0.305,0.026-0.616,0.03-0.931
		c0.001-0.075,0.004-0.148,0.004-0.224c0-0.06,0-0.117-0.001-0.175c0.064-0.01,0.125-0.022,0.188-0.032
		c0.01-0.083,0.02-0.17,0.031-0.263c0.116,0.067,0.232,0.132,0.349,0.195c0.019-0.004,0.036-0.008,0.055-0.012
		C15.259,13.11,15.257,13.124,15.256,13.137z M15.338,12.432c-0.006,0.054-0.012,0.106-0.018,0.156
		c-0.081,0.014-0.16,0.029-0.243,0.043c-0.147,0.024-0.297,0.047-0.45,0.067c-0.011-0.355-0.033-0.7-0.061-1.039
		c-0.01-0.128-0.019-0.259-0.033-0.385c0.309-0.051,0.606-0.111,0.887-0.18c0.019,0.11,0.037,0.222,0.053,0.335
		c0.041,0.282,0.073,0.572,0.096,0.868c0.006,0.081,0.013,0.161,0.018,0.242c-0.014,0.003-0.03,0.005-0.044,0.008
		C15.475,12.509,15.406,12.471,15.338,12.432z M16.168,12.879c0.263-0.076,0.514-0.159,0.75-0.247
		c0.015,0.201,0.022,0.404,0.024,0.61C16.682,13.129,16.424,13.008,16.168,12.879z M17.578,13.502
		c-0.034-0.013-0.067-0.026-0.101-0.039c0-0.026,0.001-0.052,0.001-0.078c0.002-0.255-0.01-0.506-0.029-0.754
		c-0.005-0.072-0.009-0.144-0.015-0.216c0.027-0.013,0.054-0.026,0.081-0.039c0.162-0.079,0.315-0.164,0.454-0.25
		c0.006,0.036,0.01,0.073,0.016,0.11c0.028,0.19,0.049,0.383,0.063,0.578c0.013,0.187,0.02,0.377,0.018,0.57
		c0.001,0.099-0.002,0.196-0.005,0.294C17.898,13.623,17.738,13.563,17.578,13.502z M18.585,13.848c0-0.004,0.001-0.007,0.001-0.01
		c0.171-0.14,0.314-0.284,0.425-0.426c-0.001,0.186-0.01,0.371-0.025,0.553C18.851,13.927,18.718,13.889,18.585,13.848z"/>
</g>
</svg>
