<?xml version="1.0" encoding="utf-8"?>
<!-- Generator: Adobe Illustrator 17.0.0, SVG Export Plug-In . SVG Version: 6.00 Build 0)  -->
<!DOCTYPE svg PUBLIC "-//W3C//DTD SVG 1.1//EN" "http://www.w3.org/Graphics/SVG/1.1/DTD/svg11.dtd">
<svg version="1.1" id="Capa_1" xmlns="http://www.w3.org/2000/svg" xmlns:xlink="http://www.w3.org/1999/xlink" x="0px" y="0px"
	 width="27px" height="26.757px" viewBox="0 0 27 26.757" enable-background="new 0 0 27 26.757" xml:space="preserve">
<ellipse fill="#216D96" cx="13.144" cy="13.378" rx="12.523" ry="12.933"/>
<g>
	<path fill="#FFFFFF" d="M10.898,7.917h0.379c0.186,0,0.343-0.084,0.343-0.185V6.699c0-0.123,0.104-0.226,0.226-0.226h3.307
		c0.122,0,0.226,0.103,0.226,0.226v1.044c0,0.093,0.16,0.173,0.343,0.173h0.38c0.183,0,0.343-0.081,0.343-0.173V6.699
		c0-0.713-0.58-1.292-1.292-1.292h-3.307c-0.712,0-1.292,0.579-1.292,1.292v1.016C10.555,7.825,10.712,7.917,10.898,7.917z"/>
	<path fill="#FFFFFF" d="M12.977,15.245h1.045c0.189,0,0.343-0.154,0.343-0.343v-0.39c0-0.189-0.154-0.343-0.343-0.343h-1.045
		c-0.189,0-0.343,0.154-0.343,0.343v0.39C12.634,15.092,12.788,15.245,12.977,15.245z"/>
	<path fill="#FFFFFF" d="M12.634,16.697c0,0.189,0.154,0.343,0.343,0.343h1.045c0.189,0,0.343-0.154,0.343-0.343v-0.515
		c0-0.189-0.154-0.343-0.343-0.343h-1.045c-0.189,0-0.343,0.154-0.343,0.343V16.697z"/>
	<path fill="#FFFFFF" d="M20.524,14.633c-0.093,0.034-0.174,0.063-0.25,0.089c-1.678,0.578-3.483,0.931-5.368,1.049v0.666
		c0,0.583-0.475,1.057-1.058,1.057h-0.698c-0.583,0-1.058-0.474-1.058-1.057V15.77c-2.035-0.127-3.97-0.526-5.754-1.186
		c-0.051-0.015-0.144-0.051-0.369-0.141l-0.029-0.011c-0.013-0.005-0.025-0.01-0.037-0.015v4.338c0,0.478,0.388,0.866,0.866,0.866
		H20.23c0.477,0,0.866-0.388,0.866-0.866v-4.344c-0.06,0.024-0.125,0.05-0.193,0.077L20.524,14.633z"/>
	<path fill="#FFFFFF" d="M20.57,8.57H6.43c-0.463,0-0.84,0.377-0.84,0.84v3.753c0,0.088,0.088,0.224,0.169,0.259
		c0.002,0.001,0.155,0.068,0.403,0.167c1.792,0.713,3.841,1.159,5.934,1.296v-0.631c0-0.418,0.631-0.704,1.055-0.704h0.698
		c0.492,0,1.054,0.323,1.043,0.815v0.52c1.818-0.117,3.572-0.458,5.188-1.015c0.51-0.176,1.155-0.45,1.162-0.453
		c0.08-0.034,0.168-0.167,0.168-0.254V9.409C21.41,8.946,21.033,8.57,20.57,8.57z"/>
</g>
</svg>
