<?xml version="1.0" encoding="utf-8"?>
<!-- Generator: Adobe Illustrator 17.0.0, SVG Export Plug-In . SVG Version: 6.00 Build 0)  -->
<!DOCTYPE svg PUBLIC "-//W3C//DTD SVG 1.1//EN" "http://www.w3.org/Graphics/SVG/1.1/DTD/svg11.dtd">
<svg version="1.1" id="Capa_1" xmlns="http://www.w3.org/2000/svg" xmlns:xlink="http://www.w3.org/1999/xlink" x="0px" y="0px"
	 width="27px" height="26.757px" viewBox="0 0 27 26.757" enable-background="new 0 0 27 26.757" xml:space="preserve">
<ellipse fill="#216D96" cx="13.477" cy="13.378" rx="12.523" ry="12.933"/>
<g>
	<polygon fill="#FFFFFF" points="5.178,9.863 5.178,18.092 10.125,13.977 	"/>
	<path fill="#FFFFFF" d="M20.508,7.303H6.492c-0.647,0-1.188,0.473-1.294,1.091l6.539,5.438l1.09,0.906
		c0.37,0.308,0.976,0.308,1.347,0l1.145-0.952l6.484-5.392C21.696,7.776,21.155,7.303,20.508,7.303z"/>
	<polygon fill="#FFFFFF" points="21.822,18.092 21.822,9.863 16.875,13.977 	"/>
	<path fill="#FFFFFF" d="M15.058,15.488l-0.885,0.736c-0.371,0.308-0.977,0.308-1.347,0l-1.142-0.95l-0.667-0.555l-5.345,4.445
		c0.225,0.18,0.51,0.289,0.819,0.289h14.016c0.309,0,0.594-0.109,0.819-0.289l-5.346-4.445L15.058,15.488z"/>
</g>
</svg>
